<?xml version="1.0" standalone="no"?>
<!DOCTYPE svg PUBLIC "-//W3C//DTD SVG 20010904//EN"
 "http://www.w3.org/TR/2001/REC-SVG-20010904/DTD/svg10.dtd">
<svg version="1.0" xmlns="http://www.w3.org/2000/svg"
 width="260.000000pt" height="260.000000pt" viewBox="0 0 260.000000 260.000000"
 preserveAspectRatio="xMidYMid meet">
<metadata>
Created by potrace 1.14, written by Peter Selinger 2001-2017
</metadata>
<g transform="translate(0.000000,260.000000) scale(0.100000,-0.100000)"
fill="#000000" stroke="none">
<path d="M0 1300 l0 -1300 1300 0 1300 0 0 1300 0 1300 -1300 0 -1300 0 0
-1300z m1423 834 c33 -8 98 -31 144 -50 96 -40 167 -52 213 -35 32 11 32 10
26 -17 -4 -15 -20 -45 -35 -68 -27 -38 -27 -42 -10 -52 9 -6 34 -45 55 -86 20
-42 45 -83 55 -92 25 -23 25 -61 -1 -69 -11 -3 -23 -18 -26 -33 -11 -45 -34
-85 -74 -127 -35 -37 -38 -45 -45 -120 -20 -237 -92 -428 -209 -553 -83 -88
-140 -116 -236 -117 -58 0 -85 5 -121 23 -175 86 -303 336 -325 638 -7 84 -9
91 -45 132 -21 24 -48 68 -60 98 -16 37 -28 54 -41 54 -30 0 -24 58 7 72 14 6
25 18 25 27 1 28 40 105 71 137 27 28 28 32 14 44 -20 16 -55 83 -55 104 0 12
5 13 31 4 45 -16 115 -4 212 36 48 20 110 43 139 50 72 20 216 20 291 0z
m-634 -954 c21 -77 62 -181 105 -265 22 -44 43 -84 45 -90 2 -5 -29 28 -68 75
-118 138 -181 259 -181 347 0 57 20 118 48 149 l27 29 6 -100 c3 -55 11 -120
18 -145z m1067 142 c35 -120 -29 -265 -201 -457 l-44 -50 45 88 c86 167 134
328 134 454 l0 66 25 -23 c14 -13 33 -49 41 -78z m-712 -674 c14 -20 14 -25
-5 -55 l-21 -33 36 0 c31 0 40 6 77 55 23 30 44 55 48 55 3 0 22 -22 41 -48
43 -58 48 -62 83 -62 32 0 32 1 12 41 -16 30 -7 69 15 69 5 0 28 -25 51 -55
l41 -55 169 0 c106 0 169 -4 169 -10 0 -7 -200 -10 -580 -10 -370 0 -580 4
-580 10 0 6 67 11 167 12 l167 3 40 52 c23 28 44 52 48 52 4 1 14 -9 22 -21z"/>
<path d="M929 1914 c-29 -8 -62 -30 -88 -55 -180 -180 29 -467 258 -353 159
79 159 313 0 390 -60 29 -115 35 -170 18z m171 -56 c123 -63 132 -227 18 -311
-42 -31 -133 -35 -185 -8 -165 83 -102 341 82 341 23 0 61 -10 85 -22z"/>
<path d="M989 1827 c-59 -39 -65 -124 -12 -173 53 -49 139 -37 176 25 62 105
-62 217 -164 148z m93 -40 c-4 -24 17 -49 35 -43 20 8 16 -28 -6 -55 -13 -17
-29 -23 -56 -23 -69 0 -99 71 -50 120 31 30 82 31 77 1z"/>
<path d="M1474 1901 c-84 -38 -146 -151 -129 -233 35 -159 202 -235 339 -154
115 68 138 230 48 338 -55 65 -173 88 -258 49z m133 -32 c99 -37 142 -161 90
-259 -44 -83 -152 -113 -244 -69 -111 54 -127 217 -29 295 54 43 123 56 183
33z"/>
<path d="M1454 1840 c-37 -15 -64 -59 -64 -104 0 -103 117 -151 191 -80 91 87
-9 232 -127 184z m78 -61 c-3 -26 19 -46 39 -33 12 7 11 -10 -2 -39 -11 -25
-47 -47 -75 -47 -25 0 -64 47 -64 76 0 40 37 76 75 72 26 -3 30 -7 27 -29z"/>
<path d="M1315 1869 l-37 -41 -33 36 c-42 46 -51 46 -20 0 13 -20 30 -51 37
-70 15 -43 24 -43 38 0 6 19 24 53 41 75 38 53 22 53 -26 0z"/>
<path d="M716 1731 c-3 -5 1 -14 8 -20 16 -13 32 2 21 19 -8 12 -22 13 -29 1z"/>
<path d="M1810 1725 c0 -8 7 -15 15 -15 8 0 15 7 15 15 0 8 -7 15 -15 15 -8 0
-15 -7 -15 -15z"/>
<path d="M1272 1705 c0 -16 2 -22 5 -12 2 9 2 23 0 30 -3 6 -5 -1 -5 -18z"/>
<path d="M1325 1532 c-3 -3 -5 -13 -5 -22 0 -23 -36 -54 -55 -46 -9 3 -22 19
-29 36 l-12 30 -24 -26 c-37 -38 -87 -66 -143 -79 l-50 -11 54 -22 c29 -13 93
-30 140 -38 81 -14 92 -13 175 5 94 21 195 59 158 60 -46 2 -119 36 -160 76
-24 23 -46 39 -49 37z"/>
</g>
</svg>
